<!DOCTYPE svg PUBLIC "-//W3C//DTD SVG 1.1//EN" "http://www.w3.org/Graphics/SVG/1.1/DTD/svg11.dtd">
<!-- Uploaded to: SVG Repo, www.svgrepo.com, Transformed by: SVG Repo Mixer Tools -->
<svg width="256px" height="256px" viewBox="0 0 1024 1024" class="icon" version="1.1" xmlns="http://www.w3.org/2000/svg" fill="#000000">
<g id="SVGRepo_bgCarrier" stroke-width="0"/>
<g id="SVGRepo_tracerCarrier" stroke-linecap="round" stroke-linejoin="round"/>
<g id="SVGRepo_iconCarrier">
<path d="M234.115072 96.256H789.64736c76.70272 0 138.883072 62.180352 138.883072 138.883072V790.67136c0 76.70272-62.180352 138.883072-138.883072 138.883072H234.115072C157.412352 929.554432 95.232 867.37408 95.232 790.67136V235.139072C95.232 158.436352 157.412352 96.256 234.115072 96.256" fill="#ffff00"/>
<path d="M752.3584 337.144832c5.197824 5.197824 8.059904 12.136448 8.061952 19.53792 0.001024 7.371776-2.82624 14.260224-7.960576 19.395584L531.29728 597.240832c-5.136384 5.134336-11.972608 7.962624-19.250176 7.962624l-0.374784-0.003072c-7.246848-0.023552-14.098432-2.850816-19.208192-7.959552L271.302656 376.078336c-5.198848-5.199872-8.051712-12.1088-8.031232-19.456 0.02048-7.33696 2.90816-14.253056 8.13056-19.477504 5.198848-5.197824 12.13952-8.060928 19.54304-8.060928 7.3728 0.001024 14.257152 2.828288 19.390464 7.960576l201.544704 201.545728 201.545728-201.545728c5.178368-5.178368 12.06272-8.030208 19.380224-8.030208 7.365632 0 14.308352 2.88768 19.552256 8.13056zM887.570432 790.67136c0 53.994496-43.928576 97.923072-97.923072 97.923072H234.115072c-53.99552 0-97.923072-43.928576-97.923072-97.923072V235.139072C136.192 181.144576 180.119552 137.216 234.115072 137.216H789.64736c53.99552 0 97.923072 43.928576 97.923072 97.923072V790.67136zM789.64736 96.256H234.115072C157.412352 96.256 95.232 158.436352 95.232 235.139072V790.67136c0 76.70272 62.180352 138.883072 138.883072 138.883072H789.64736c76.70272 0 138.883072-62.180352 138.883072-138.883072V235.139072C928.530432 158.436352 866.35008 96.256 789.64736 96.256z" fill="#000000"/>
</g>
</svg>